<?xml version="1.0" encoding="UTF-8" standalone="no"?>
<!-- Created with Inkscape (http://www.inkscape.org/) -->

<svg
   xmlns:dc="http://purl.org/dc/elements/1.1/"
   xmlns:cc="http://creativecommons.org/ns#"
   xmlns:rdf="http://www.w3.org/1999/02/22-rdf-syntax-ns#"
   xmlns:svg="http://www.w3.org/2000/svg"
   xmlns="http://www.w3.org/2000/svg"
   xmlns:sodipodi="http://sodipodi.sourceforge.net/DTD/sodipodi-0.dtd"
   xmlns:inkscape="http://www.inkscape.org/namespaces/inkscape"
   width="238.85764"
   height="106.48382"
   id="svg3601"
   version="1.1"
   inkscape:version="0.48.4 r9939"
   sodipodi:docname="snimpy.svg">
  <defs
     id="defs3603" />
  <sodipodi:namedview
     id="base"
     pagecolor="#ffffff"
     bordercolor="#666666"
     borderopacity="1.0"
     inkscape:pageopacity="0.0"
     inkscape:pageshadow="2"
     inkscape:zoom="1"
     inkscape:cx="42.31331"
     inkscape:cy="78.237319"
     inkscape:document-units="px"
     inkscape:current-layer="layer1"
     showgrid="false"
     fit-margin-top="5"
     fit-margin-left="5"
     fit-margin-right="5"
     fit-margin-bottom="5"
     inkscape:window-width="1358"
     inkscape:window-height="744"
     inkscape:window-x="0"
     inkscape:window-y="16"
     inkscape:window-maximized="0" />
  <metadata
     id="metadata3606">
    <rdf:RDF>
      <cc:Work
         rdf:about="">
        <dc:format>image/svg+xml</dc:format>
        <dc:type
           rdf:resource="http://purl.org/dc/dcmitype/StillImage" />
        <dc:title />
      </cc:Work>
    </rdf:RDF>
  </metadata>
  <g
     inkscape:label="Layer 1"
     inkscape:groupmode="layer"
     id="layer1"
     transform="translate(-114.352,-318.21207)">
    <path
       inkscape:connector-curvature="0"
       id="path3614"
       style="font-size:72px;font-style:normal;font-variant:normal;font-weight:normal;font-stretch:normal;text-align:start;line-height:125%;letter-spacing:0px;word-spacing:0px;writing-mode:lr-tb;text-anchor:start;fill:#5abf18;fill-opacity:1;stroke:none;font-family:Henny Penny;-inkscape-font-specification:Henny Penny"
       d="m 138.71139,327.56489 c -6.19415,2.02031 -9.78339,6.09101 -9.78339,16.603 0,14.39998 19.944,22.75202 19.944,39.744 0,4.31999 -2.52001,9.072 -8.28,9.072 -4.752,0 -9.648,-2.08801 -13.68,-9 -2.304,-3.888 -4.104,-8.496 -4.968,-10.728 -0.648,-1.656 -1.224,-2.736 -1.944,-2.736 -0.504,0 -0.648,0.432 -0.648,0.864 0,1.944 2.952,9.576 2.952,15.984 0,3.52799 -0.648,6.264 -0.648,7.056 0,0.36 0,0.648 0.432,0.648 0.864,0 2.736,-3.816 5.328,-3.816 3.384,0 6.55201,3.888 13.464,3.888 8.92799,0 16.848,-5.32801 16.848,-16.56 0,-16.34399 -21.672,-28.15201 -21.672,-38.376 0,-5.112 2.592,-7.776 6.984,-7.776 7.27199,0 8.17463,-0.74661 11.77684,-0.0378 1.43572,0.29606 2.7645,0.8675 4.0063,1.4058 0.69926,0.31458 5.99437,1.4031 6.69295,1.7412 0.69858,0.3381 -1.37435,3.52486 -0.70404,3.83781 0.6703,0.31296 2.03026,-3.14076 2.64468,-2.90163 0.61442,0.23914 1.34097,0.51407 1.8719,0.63073 0.53093,0.11665 -0.73999,2.21161 -0.32015,2.15712 0.41983,-0.0545 3.34775,-1.95043 3.62889,-2.22473 4.09398,-3.99438 2.9015,-4.8206 0.22789,-7.0225 -1.3368,-1.10095 -4.68228,-6.21099 -7.16344,-6.73293 -2.48116,-0.52194 -6.72301,1.91923 -8.67397,2.24214"
       sodipodi:nodetypes="csssccssssssssssccscssssssc" />
    <path
       inkscape:connector-curvature="0"
       id="path3616"
       style="font-size:72px;font-style:normal;font-variant:normal;font-weight:normal;font-stretch:normal;text-align:start;line-height:125%;letter-spacing:0px;word-spacing:0px;writing-mode:lr-tb;text-anchor:start;fill:#000000;fill-opacity:1;stroke:none;font-family:Henny Penny;-inkscape-font-specification:Henny Penny"
       d="m 169.36162,341.35989 c -0.57599,0 -2.52,3.888 -5.976,6.624 -1.79999,1.368 -3.312,2.088 -4.608,2.592 -0.57599,0.216 -1.15199,0.432 -1.15199,1.008 0,0.432 0.216,0.576 0.64799,0.576 1.08,0 2.73601,-1.224 4.176,-1.224 1.368,0 1.94401,1.296 2.52,3.96 2.376,10.43999 4.248,20.376 4.248,25.56 0,1.512 -0.432,2.376 -1.944,2.592 -1.58399,0.216 -2.232,0.216 -3.528,0.288 -0.79199,0.144 -1.08,0.432 -1.08,0.864 0,0.576 0.50401,0.864 1.368,0.864 1.224,0 4.32001,-0.432 6.912,-0.432 2.664,0 5.47201,0.792 7.416,0.792 1.008,0 1.44,-0.288 1.44,-0.576 0,-0.36 -0.36,-0.504 -1.296,-0.792 -0.71999,-0.288 -1.872,-0.792 -2.736,-2.016 -1.22399,-1.728 -1.944,-6.33601 -1.944,-11.448 0,-3.096 0.072,-6.192 0.648,-9.072 0.864,-5.688 3.60001,-9.864 7.488,-9.864 6.912,0 6.912,10.296 6.912,15.048 0,3.52799 -0.36,8.28 -0.792,10.44 -0.57599,2.736 -1.8,3.528 -3.672,3.672 -1.22399,0.072 -2.52,0.072 -3.168,0.072 -0.50399,0 -0.792,0.216 -0.792,0.648 0,0.432 0.43201,0.648 1.22401,0.72 2.95199,0.144 4.968,0.576 7.19999,1.296 5.904,1.872 7.99201,4.752 9.648,4.752 0.576,0 0.792,-0.36 0.792,-0.792 0,-1.44 -2.88,-2.304 -4.17599,-4.248 -0.576,-1.008 -0.86401,-2.16 -0.86401,-3.816 0,-5.544 1.872,-12.96001 1.872,-19.944 0,-7.77599 -3.168,-13.392 -10.224,-13.392 -8.56799,0 -12.312,9.864 -13.032,14.472 l -1.296,-8.856 c -0.79199,-5.184 -1.512,-10.368 -2.232,-10.368" />
    <path
       inkscape:connector-curvature="0"
       id="path3618"
       style="font-size:72px;font-style:normal;font-variant:normal;font-weight:normal;font-stretch:normal;text-align:start;line-height:125%;letter-spacing:0px;word-spacing:0px;writing-mode:lr-tb;text-anchor:start;fill:#000000;fill-opacity:1;stroke:none;font-family:Henny Penny;-inkscape-font-specification:Henny Penny"
       d="m 210.61312,330.27189 c -1.72799,0 -4.248,1.08 -4.248,4.536 0,3.23999 2.44801,4.32 4.248,4.32 2.016,0 4.536,-1.15201 4.536,-4.68 0,-2.664 -1.8,-4.176 -4.536,-4.176 m 4.968,11.52 c -0.64799,0 -1.656,1.872 -5.76,3.6 -3.67199,1.584 -6.912,1.728 -8.208,1.8 -0.71999,0.072 -1.08,0.36 -1.08,0.792 0,0.504 0.36001,0.72 0.864,0.792 3.528,0.288 5.04001,0.432 5.184,5.256 0.144,1.512 0.072,3.672 0.072,6.264 0,4.31999 0.072,9.936 -0.36,15.12 -0.28799,2.664 -2.088,3.096 -3.96,3.456 -0.71999,0.144 -1.656,0.288 -1.656,1.008 0,0.648 0.79201,0.792 1.584,0.792 1.944,0 3.81601,-0.504 7.2,-0.504 3.6,0 6.33601,1.08 9.144,1.08 1.008,0 1.512,-0.288 1.512,-0.72 0,-0.504 -0.648,-0.504 -1.656,-0.648 -1.22399,-0.144 -3.024,-0.648 -3.816,-1.152 -0.71999,-0.576 -1.512,-1.296 -1.512,-4.176 0,-3.384 1.29601,-18.93601 2.376,-27.648 0.288,-1.8 0.432,-3.6 0.432,-4.32 0,-0.504 -0.072,-0.792 -0.36,-0.792" />
    <path
       inkscape:connector-curvature="0"
       id="path3620"
       style="font-size:72px;font-style:normal;font-variant:normal;font-weight:normal;font-stretch:normal;text-align:start;line-height:125%;letter-spacing:0px;word-spacing:0px;writing-mode:lr-tb;text-anchor:start;fill:#000000;fill-opacity:1;stroke:none;font-family:Henny Penny;-inkscape-font-specification:Henny Penny"
       d="m 221.31412,375.99189 c 0,0.288 0.14401,0.864 2.16001,0.864 2.59199,0 4.32,-0.36 6.83999,-0.36 2.448,0 6.19201,0.792 7.704,0.792 1.296,0 1.728,-0.288 1.728,-0.648 0,-1.08 -2.664,-0.504 -4.536,-1.944 -1.43999,-1.08 -1.8,-3.74401 -1.8,-6.984 0,-4.248 0.57601,-6.84 0.864,-7.776 0.576,-1.872 2.01601,-3.888 4.104,-3.888 3.672,0 3.888,4.608 3.888,7.344 0,3.81599 -0.36,7.2 -2.448,8.064 -1.00799,0.432 -2.088,0.216 -2.088,0.864 0,0.432 0.72001,0.648 1.872,0.648 1.296,0 1.94401,-0.144 3.096,-0.144 3.096,0 6.33601,1.224 7.992,1.224 0.72,0 1.08,-0.216 1.08,-0.72 0,-0.36 -0.36,-0.648 -0.792,-0.792 -1.58399,-0.72 -2.592,-2.376 -2.592,-5.112 0,-2.808 0.36001,-5.976 1.224,-7.992 0.576,-1.296 1.72801,-3.168 4.176,-3.168 3.672,0 3.96,4.608 3.96,7.272 0,2.52 -0.432,5.544 -0.936,6.984 -0.43199,1.44 -1.296,2.304 -2.304,2.592 -0.79199,0.216 -1.224,0.432 -1.224,0.936 0,1.224 2.59201,1.008 6.40801,2.88 2.44799,1.152 6.048,4.104 7.704,4.104 0.64799,0 1.08,-0.288 1.08,-0.72 0,-1.224 -2.37601,-1.152 -3.52801,-3.672 -0.50399,-1.08 -0.71999,-2.448 -0.71999,-3.888 0,-2.88 0.71999,-7.41601 0.71999,-11.232 0,-4.68 -1.368,-9.432 -7.416,-9.432 -4.17599,0 -6.984,2.448 -8.784,5.688 -0.64799,-2.664 -2.736,-5.616 -6.984,-5.616 -4.75199,0 -7.704,4.464 -8.424,6.12 -0.35999,-4.032 -0.936,-9.792 -1.728,-9.792 -0.57599,0 -1.368,1.728 -5.4,3.384 -4.17599,1.8 -6.552,1.152 -6.552,2.448 0,0.432 0.36001,0.792 1.224,0.792 0.432,0 1.00801,-0.072 1.656,-0.072 2.16,0 3.02401,1.08 3.528,2.664 0.864,2.736 1.8,8.64 1.8,13.248 0,2.232 -1.224,3.24 -2.376,3.528 -1.79999,0.432 -4.176,0.288 -4.176,1.512" />
    <path
       inkscape:connector-curvature="0"
       id="path3622"
       style="font-size:72px;font-style:normal;font-variant:normal;font-weight:normal;font-stretch:normal;text-align:start;line-height:125%;letter-spacing:0px;word-spacing:0px;writing-mode:lr-tb;text-anchor:start;color:#000000;fill:#b8162a;fill-opacity:1;fill-rule:nonzero;stroke:none;stroke-width:1;marker:none;visibility:visible;display:inline;overflow:visible;enable-background:accumulate;font-family:Henny Penny;-inkscape-font-specification:Henny Penny"
       d="m 280.8075,349.92789 c 0,-0.648 -0.072,-1.224 -0.504,-1.224 -0.72,0 -1.368,1.8 -4.752,4.896 -2.52,2.376 -5.256,3.096 -6.768,3.96 -1.152,0.576 -1.296,0.936 -1.296,1.224 0,0.36 0.216,0.576 0.576,0.576 0.864,0 2.808,-1.296 4.176,-1.296 1.8,0 2.376,1.584 2.376,7.56 0,8.06399 -0.576,33.768 -0.936,38.52 -0.216,3.024 -0.432,6.48 -2.736,8.064 -2.16,1.368 -4.176,0.936 -4.176,1.728 0,0.36 0.576,0.648 2.664,0.648 1.512,0 2.736,-0.216 4.824,-0.216 3.888,0 11.232,1.872 13.752,1.872 0.792,0 1.08,-0.36 1.08,-0.864 0,-0.72 -1.296,-1.368 -2.736,-2.016 -1.152,-0.504 -2.448,-1.296 -3.24,-2.736 -1.656,-2.952 -1.8,-13.10401 -1.8,-19.368 0,-3.96 -0.072,-5.68801 0.072,-9.504 1.296,0.792 3.456,1.872 6.12,1.872 7.55999,0 13.752,-6.76801 13.752,-17.712 0,-7.27199 -3.81601,-12.384 -10.584,-12.384 -3.024,0 -5.616,1.44 -7.272,2.808 -1.008,0.792 -1.872,1.728 -2.592,2.736 0,-2.808 -0.072,-2.736 -0.072,-4.968 0,-1.944 0.072,-3.456 0.072,-4.176 m 6.48,7.056 c 4.608,0 6.408,4.464 6.408,10.656 0,10.15199 -3.456,13.824 -7.272,13.824 -4.896,0 -6.12,-5.54401 -6.12,-10.512 0,-4.752 0.93601,-13.968 6.984,-13.968" />
    <path
       inkscape:connector-curvature="0"
       id="path3624"
       style="font-size:72px;font-style:normal;font-variant:normal;font-weight:normal;font-stretch:normal;text-align:start;line-height:125%;letter-spacing:0px;word-spacing:0px;writing-mode:lr-tb;text-anchor:start;color:#000000;fill:#b8162a;fill-opacity:1;fill-rule:nonzero;stroke:none;stroke-width:1;marker:none;visibility:visible;display:inline;overflow:visible;enable-background:accumulate;font-family:Henny Penny;-inkscape-font-specification:Henny Penny"
       d="m 322.07362,348.05589 c -1.65599,0 -4.248,2.592 -10.08,5.4 -2.51999,1.224 -4.68,2.088 -8.928,3.24 -0.43199,0.144 -0.72,0.432 -0.72,0.792 0,0.432 0.28801,0.648 0.72,0.648 0.504,0 1.58401,-0.288 2.448,-0.288 0.792,0 1.36801,0.36 1.656,1.8 2.088,10.51199 3.74402,27.504 16.344,27.504 4.824,0 8.42401,-2.952 10.08,-5.832 0.648,-1.152 1.15201,-2.304 1.584,-3.312 0.216,-0.504 0.43201,-1.008 0.576,-1.512 l 0.072,0.936 c 0,0.576 0.072,1.44 0.072,2.592 0,3.52799 -0.288,9.64801 -1.584,17.928 -0.43199,2.088 -3.38401,19.944 -15.192,19.944 -4.67999,0 -8.06399,-3.02401 -8.06399,-7.56 0,-2.376 1.008,-4.824 2.51999,-4.824 2.088,0 1.29601,5.184 6.04801,5.184 2.73599,0 4.39199,-2.016 4.39199,-4.536 0,-2.952 -2.088,-5.76 -6.12,-5.76 -4.89599,0 -8.56799,4.176 -8.56799,10.08 0,5.47199 3.96,9.216 9.71999,9.216 8.208,0 14.68801,-7.12801 18.504,-18.72 3.744,-11.51999 5.25601,-22.60801 5.904,-31.176 0.576,-7.70399 0.50401,-11.016 1.368,-13.032 0.504,-1.152 1.65601,-1.656 2.736,-2.376 0.432,-0.288 0.64801,-0.576 0.64801,-1.08 0,-0.504 -0.43201,-0.792 -1.00801,-0.792 -0.21599,0 -0.648,0 -1.296,0.288 -1.65599,0.576 -6.84,1.512 -10.224,1.512 -3.09599,0 -5.4,-0.36 -6.76799,-0.36 -0.72,0 -1.22401,0.432 -1.22401,1.08 0,0.648 0.36001,1.008 1.36801,1.224 0.79199,0.216 3.096,0.576 4.248,1.368 1.51199,0.936 2.23199,3.24 2.23199,7.848 0,5.25599 -1.296,16.776 -8.568,16.776 -3.45599,0 -5.832,-2.16001 -7.488,-5.544 -1.58399,-3.168 -3.312,-9.79201 -3.456,-16.848 0,-3.528 0.14401,-5.976 2.52,-7.776 2.016,-1.512 3.16801,-2.088 3.744,-2.52 0.288,-0.288 0.50401,-0.504 0.50401,-0.864 0,-0.504 -0.36001,-0.648 -0.72001,-0.648" />
  </g>
</svg>
